<svg xmlns="http://www.w3.org/2000/svg" viewBox="0 0 32 32">
  <rect width="32" height="32" rx="7" fill="#6366f1"/>
  <path d="M8 11.5C8 10.1 9.1 9 10.5 9h11C22.9 9 24 10.1 24 11.5S22.9 14 21.5 14h-11C9.1 14 8 12.9 8 11.5Z" fill="#fff" opacity=".95"/>
  <path d="M8 20.5C8 19.1 9.1 18 10.5 18h11c1.4 0 2.5 1.1 2.5 2.5S22.9 23 21.5 23h-11C9.1 23 8 21.9 8 20.5Z" fill="#fff" opacity=".75"/>
  <circle cx="11.5" cy="11.5" r="1.3" fill="#6366f1"/>
  <circle cx="11.5" cy="20.5" r="1.3" fill="#6366f1"/>
</svg>
